<mxfile host="Electron" agent="Mozilla/5.0 (Macintosh; Intel Mac OS X 10_15_7) AppleWebKit/537.36 (KHTML, like Gecko) draw.io/24.7.5 Chrome/126.0.6478.183 Electron/31.3.0 Safari/537.36" version="24.7.5">
  <diagram name="Page-1" id="qRDxjk-d9kEg62A3wvsD">
    <mxGraphModel dx="954" dy="727" grid="1" gridSize="10" guides="1" tooltips="1" connect="1" arrows="1" fold="1" page="1" pageScale="1" pageWidth="850" pageHeight="1100" math="0" shadow="0">
      <root>
        <mxCell id="0" />
        <mxCell id="1" parent="0" />
        <mxCell id="gc05kPgGJwsCWM0ZtDCh-2" style="edgeStyle=orthogonalEdgeStyle;rounded=0;orthogonalLoop=1;jettySize=auto;html=1;exitX=0.5;exitY=1;exitDx=0;exitDy=0;" edge="1" parent="1" source="gc05kPgGJwsCWM0ZtDCh-1">
          <mxGeometry relative="1" as="geometry">
            <mxPoint x="380" y="130" as="targetPoint" />
          </mxGeometry>
        </mxCell>
        <mxCell id="gc05kPgGJwsCWM0ZtDCh-1" value="Algoritmo para calcular el número primero de un número entero" style="ellipse;whiteSpace=wrap;html=1;" vertex="1" parent="1">
          <mxGeometry x="320" width="120" height="80" as="geometry" />
        </mxCell>
        <mxCell id="gc05kPgGJwsCWM0ZtDCh-5" style="edgeStyle=orthogonalEdgeStyle;rounded=0;orthogonalLoop=1;jettySize=auto;html=1;exitX=0.5;exitY=1;exitDx=0;exitDy=0;" edge="1" parent="1" source="gc05kPgGJwsCWM0ZtDCh-4">
          <mxGeometry relative="1" as="geometry">
            <mxPoint x="380" y="240" as="targetPoint" />
          </mxGeometry>
        </mxCell>
        <mxCell id="gc05kPgGJwsCWM0ZtDCh-4" value="Definir a&amp;nbsp;&lt;div&gt;(número al que le vamos a calcular el factorial)&lt;/div&gt;" style="shape=manualInput;whiteSpace=wrap;html=1;" vertex="1" parent="1">
          <mxGeometry x="300" y="120" width="160" height="80" as="geometry" />
        </mxCell>
        <mxCell id="gc05kPgGJwsCWM0ZtDCh-7" style="edgeStyle=orthogonalEdgeStyle;rounded=0;orthogonalLoop=1;jettySize=auto;html=1;exitX=0.5;exitY=1;exitDx=0;exitDy=0;" edge="1" parent="1" source="gc05kPgGJwsCWM0ZtDCh-6">
          <mxGeometry relative="1" as="geometry">
            <mxPoint x="380" y="450" as="targetPoint" />
          </mxGeometry>
        </mxCell>
        <mxCell id="gc05kPgGJwsCWM0ZtDCh-6" value="Ciclo for (porque sé cuántas iteraciones necesito) que empiece en 2 hasta a+1&lt;div&gt;suma= 1&amp;nbsp;&lt;/div&gt;&lt;div&gt;variable_guarda_suma = suma * i&lt;/div&gt;&lt;div&gt;suma = variable_guarda_suma&lt;/div&gt;" style="rounded=1;whiteSpace=wrap;html=1;" vertex="1" parent="1">
          <mxGeometry x="255" y="240" width="250" height="150" as="geometry" />
        </mxCell>
        <mxCell id="gc05kPgGJwsCWM0ZtDCh-9" style="edgeStyle=orthogonalEdgeStyle;rounded=0;orthogonalLoop=1;jettySize=auto;html=1;exitX=0;exitY=0;exitDx=128.75;exitDy=60;exitPerimeter=0;" edge="1" parent="1" source="gc05kPgGJwsCWM0ZtDCh-8">
          <mxGeometry relative="1" as="geometry">
            <mxPoint x="380" y="570" as="targetPoint" />
          </mxGeometry>
        </mxCell>
        <mxCell id="gc05kPgGJwsCWM0ZtDCh-8" value="print(suma)" style="shape=display;whiteSpace=wrap;html=1;" vertex="1" parent="1">
          <mxGeometry x="265" y="450" width="230" height="60" as="geometry" />
        </mxCell>
        <mxCell id="gc05kPgGJwsCWM0ZtDCh-10" value="Fin del algoritmo" style="ellipse;whiteSpace=wrap;html=1;" vertex="1" parent="1">
          <mxGeometry x="285" y="570" width="190" height="90" as="geometry" />
        </mxCell>
      </root>
    </mxGraphModel>
  </diagram>
</mxfile>
